<svg viewBox="0 0 32 33" fill="none" xmlns="http://www.w3.org/2000/svg">
    <g clip-path="url(#clip0_5942_951)">
        <path d="M12.6666 15.1666V23.1666M18 12.42L17.3333 15.1666H21.22C21.427 15.1666 21.6311 15.2148 21.8163 15.3074C22.0014 15.4 22.1625 15.5344 22.2866 15.7C22.4108 15.8656 22.4948 16.0578 22.5318 16.2615C22.5688 16.4651 22.5579 16.6746 22.5 16.8733L20.9466 22.2066C20.8659 22.4836 20.6974 22.7269 20.4666 22.9C20.2359 23.0731 19.9551 23.1666 19.6666 23.1666H10.6666C10.313 23.1666 9.97389 23.0262 9.72384 22.7761C9.47379 22.5261 9.33331 22.1869 9.33331 21.8333V16.5C9.33331 16.1464 9.47379 15.8072 9.72384 15.5572C9.97389 15.3071 10.313 15.1666 10.6666 15.1666H12.5066C12.7547 15.1665 12.9978 15.0972 13.2086 14.9665C13.4194 14.8357 13.5896 14.6488 13.7 14.4266L16 9.83331C16.3144 9.83721 16.6238 9.91209 16.9052 10.0524C17.1866 10.1927 17.4326 10.3947 17.6249 10.6434C17.8172 10.8922 17.9509 11.1812 18.0158 11.4888C18.0808 11.7964 18.0753 12.1147 18 12.42Z" stroke="#FDFDFD" stroke-width="2" stroke-linecap="round" stroke-linejoin="round"/>
    </g>
    <defs>
        <clipPath id="clip0_5942_951">
            <rect width="16" height="16" fill="white" transform="translate(8 8.5)"/>
        </clipPath>
    </defs>
</svg>
