<svg viewBox="0 0 32 33" fill="none" xmlns="http://www.w3.org/2000/svg">
<g clip-path="url(#clip0_5942_955)">
    <path d="M19.3333 17.8333V9.83331M14 20.58L14.6667 17.8333H10.78C10.573 17.8333 10.3688 17.7851 10.1837 17.6925C9.99856 17.6 9.83752 17.4656 9.71332 17.3C9.58913 17.1344 9.50519 16.9421 9.46816 16.7385C9.43113 16.5348 9.44203 16.3254 9.49999 16.1266L11.0533 10.7933C11.1341 10.5164 11.3025 10.2731 11.5333 10.1C11.7641 9.92688 12.0448 9.83331 12.3333 9.83331H21.3333C21.6869 9.83331 22.0261 9.97379 22.2761 10.2238C22.5262 10.4739 22.6667 10.813 22.6667 11.1666V16.5C22.6667 16.8536 22.5262 17.1927 22.2761 17.4428C22.0261 17.6928 21.6869 17.8333 21.3333 17.8333H19.4933C19.2453 17.8334 19.0022 17.9028 18.7914 18.0335C18.5805 18.1642 18.4104 18.3512 18.3 18.5733L16 23.1666C15.6856 23.1628 15.3762 23.0879 15.0948 22.9476C14.8134 22.8073 14.5674 22.6052 14.3751 22.3565C14.1827 22.1078 14.0491 21.8188 13.9842 21.5112C13.9192 21.2035 13.9246 20.8852 14 20.58Z" stroke="#FDFDFD" stroke-width="2" stroke-linecap="round" stroke-linejoin="round"/>
</g>
<defs>
    <clipPath id="clip0_5942_955">
        <rect width="16" height="16" fill="white" transform="translate(8 8.5)"/>
    </clipPath>
</defs>
</svg>
